<svg width="16" height="16" viewBox="0 0 16 16" fill="none" xmlns="http://www.w3.org/2000/svg">
<g clip-path="url(#clip0_7946_331524)">
<rect width="16" height="16" fill="url(#paint0_linear_7946_331524)"/>
<path fill-rule="evenodd" clip-rule="evenodd" d="M7.10689 5.88755C7.09236 5.692 7.04486 5.50347 6.96553 5.32604V5.32653L6.43535 4.14375C6.20683 3.63496 6.19214 3.04488 6.39389 2.52483L6.48269 2.29549C6.51631 2.20897 6.59924 2.15625 6.68624 2.15625C6.71301 2.15625 6.73978 2.16131 6.76214 2.17437C6.87428 2.21762 6.93027 2.34478 6.88636 2.45725L6.79756 2.68659C6.68379 2.98171 6.65784 3.30442 6.71823 3.61244C6.745 3.50258 6.77944 3.39436 6.82515 3.28973L6.90007 3.09679C6.9337 3.01028 7.01662 2.95755 7.10362 2.95755C7.13039 2.95755 7.157 2.9618 7.18295 2.97224C7.29509 3.0155 7.35108 3.14266 7.30717 3.25512L7.23045 3.45149C7.22996 3.45345 7.22915 3.45524 7.22833 3.45688L7.22768 3.45818C7.22735 3.45883 7.22702 3.45949 7.22686 3.46014C7.10019 3.75183 7.06918 4.07797 7.13382 4.38599C7.16483 4.27173 7.20613 4.15926 7.25967 4.05022L7.32007 3.89531C7.35369 3.8088 7.43645 3.75608 7.52345 3.75608C7.55022 3.75608 7.57699 3.76032 7.60278 3.77077C7.71492 3.81403 7.77091 3.94118 7.727 4.05365L7.66318 4.21721L7.65534 4.23533C7.51056 4.52604 7.47334 4.85136 7.54581 5.16378C7.58107 5.04169 7.67591 4.80631 7.73892 4.69302C7.77254 4.60651 7.8553 4.55379 7.94247 4.55379C7.96924 4.55379 7.99601 4.55803 8.0218 4.56848C8.13394 4.61174 8.18992 4.73889 8.14601 4.85136L8.09509 4.98194C8.0915 4.99223 8.08644 5.00186 8.08121 5.01133C7.92076 5.29355 7.87423 5.6205 7.95095 5.93374L7.95357 5.93978C7.96646 5.89653 7.98197 5.85409 7.99927 5.81263C8.03551 5.72775 8.15875 5.49074 8.15875 5.49074C8.19237 5.40422 8.27529 5.3515 8.3623 5.3515C8.38907 5.3515 8.41567 5.35574 8.44163 5.36619C8.55377 5.40945 8.60975 5.5366 8.56585 5.64907L8.52798 5.74766C8.52194 5.76235 8.51426 5.77704 8.50561 5.7901C8.46513 5.85148 8.43053 5.91546 8.40212 5.98304C8.31251 6.19589 8.30223 6.43895 8.37029 6.66829C8.41943 6.54619 8.49876 6.39487 8.5789 6.28926C8.61253 6.20275 8.69529 6.15003 8.78229 6.15003C8.80906 6.15003 8.83583 6.15427 8.86162 6.16472C8.97376 6.20797 9.02975 6.33513 8.98584 6.4476L8.96005 6.51338C8.9514 6.53411 8.94013 6.55402 8.92642 6.57133C8.81167 6.71399 8.73756 6.88457 8.71079 7.06445C8.69512 7.16826 8.71161 7.27812 8.75813 7.38193C8.76193 7.39014 8.76517 7.39878 8.76836 7.40731L8.76907 7.40919L8.77184 7.41654C8.8373 7.27975 8.9261 7.15357 9.03301 7.04535C9.07529 7.00209 9.13226 6.98038 9.18743 6.98038C9.2426 6.98038 9.29859 7.00111 9.34087 7.04355C9.42624 7.12925 9.42624 7.26767 9.34168 7.35337C9.2013 7.49603 9.10647 7.68211 9.08051 7.88028C9.05798 8.05402 9.05927 8.15905 9.06041 8.25177L9.06044 8.25375L9.06044 8.25383C9.06223 8.39172 9.06369 8.50338 8.98649 8.77658C8.96135 8.68142 8.91222 8.59409 8.84073 8.52226C8.73463 8.41584 8.59408 8.35789 8.44407 8.35789C8.41649 8.35789 8.3889 8.35952 8.36213 8.36393C8.25962 8.22633 8.09558 8.1372 7.9121 8.1372C7.72863 8.1372 7.56475 8.22633 7.46224 8.36377C7.4358 8.35952 7.40837 8.35789 7.38111 8.35789C7.26979 8.35789 7.16304 8.38988 7.07244 8.45044C7.09905 7.57993 7.13366 6.25874 7.10689 5.88755ZM7.46274 8.36485L7.46121 8.36455L7.46091 8.36485H7.46274ZM4.71813 9.61346C4.71127 9.58832 4.70442 9.56237 4.69838 9.53642H3.13609C2.89206 9.53642 2.67741 9.69818 2.60935 9.93356L2.41004 10.6232C2.3756 10.7427 2.41951 10.8699 2.51957 10.9433C2.57131 10.9813 2.63252 10.9996 2.69292 10.9996C2.76882 10.9996 2.84375 10.9702 2.90153 10.9131L3.09806 10.7167C3.14115 10.6743 3.16955 10.619 3.18 10.5592L3.25411 10.1379C3.26619 10.0713 3.32315 10.0263 3.38682 10.0263C3.40069 10.0263 3.4144 10.0281 3.42828 10.0323L5.21288 10.6033C4.98877 10.3082 4.81966 9.97338 4.71796 9.61346H4.71813ZM7.6304 10.2046C7.6304 10.1683 7.6448 10.1099 7.66797 10.0393C7.63452 10.1055 7.60367 10.1578 7.57784 10.1829C7.52267 10.2374 7.45019 10.2651 7.3787 10.2651C7.37478 10.2651 7.37103 10.2648 7.36743 10.2646C7.36368 10.2643 7.36009 10.2641 7.35617 10.2641C7.29235 10.2589 7.22934 10.2321 7.18021 10.1829C7.07068 10.073 7.07068 9.89475 7.18021 9.78489C7.206 9.75992 7.25856 9.72874 7.32499 9.69495C7.25431 9.71748 7.1949 9.73299 7.15866 9.73299C7.00343 9.73299 6.87758 9.60665 6.87758 9.45174C6.87758 9.29683 7.00343 9.17049 7.15866 9.17049C7.19474 9.17049 7.25431 9.18518 7.32499 9.20853C7.25872 9.17572 7.206 9.14372 7.18021 9.11859C7.17237 9.11075 7.16552 9.10308 7.15948 9.09524C7.12242 9.04856 7.10169 8.99322 7.09827 8.93691L7.09858 8.92582L7.09892 8.91618L7.09914 8.91027L7.10006 8.88239C7.1079 8.82363 7.1345 8.7665 7.17939 8.72063C7.23456 8.66611 7.30606 8.63836 7.37853 8.63836C7.45101 8.63836 7.5225 8.66529 7.57768 8.72063C7.60363 8.7456 7.63464 8.79849 7.66827 8.86509C7.64509 8.79408 7.6304 8.73434 7.6304 8.69892C7.6304 8.54401 7.75625 8.41767 7.91148 8.41767C8.06672 8.41767 8.19257 8.5432 8.19257 8.69892C8.19257 8.73532 8.17804 8.79408 8.1547 8.86509C8.18832 8.79849 8.21934 8.74577 8.24529 8.72063C8.30046 8.66611 8.37277 8.63836 8.44443 8.63836C8.51609 8.63836 8.5884 8.66529 8.64276 8.72063C8.75229 8.83048 8.75229 9.00873 8.64276 9.11859C8.61778 9.14356 8.56522 9.17474 8.49879 9.20853C8.56865 9.186 8.62807 9.17049 8.66431 9.17049C8.75049 9.17049 8.82721 9.20951 8.87895 9.27006C8.92041 9.31854 8.94539 9.38253 8.94539 9.45174C8.94539 9.60665 8.81954 9.73299 8.66431 9.73299C8.62905 9.73299 8.56947 9.7183 8.49879 9.69495C8.56424 9.72776 8.61697 9.75976 8.64276 9.78489C8.75229 9.89475 8.75229 10.073 8.64276 10.1829C8.5884 10.2374 8.51691 10.2651 8.44443 10.2651C8.37196 10.2651 8.30046 10.2382 8.24529 10.1829C8.21934 10.1579 8.18832 10.105 8.1547 10.0384C8.17788 10.1094 8.19257 10.1691 8.19257 10.2046C8.19257 10.3595 8.06672 10.4858 7.91148 10.4858C7.75625 10.4858 7.6304 10.3603 7.6304 10.2046ZM13.1062 8.7356C13.1095 8.75339 13.1124 8.77135 13.1149 8.78947L13.1155 8.7893L13.3259 11.007C13.3543 11.3089 13.2983 11.6127 13.1638 11.8843L12.3836 13.6399C12.3266 13.7652 12.2026 13.8449 12.0655 13.8449H11.3309C11.1791 13.8449 11.0404 13.7592 10.9731 13.6234L10.8567 13.3906C10.7559 13.1649 10.9282 12.9261 11.155 12.9261C11.186 12.9261 11.218 12.9305 11.2498 12.9399L11.5377 13.0283C11.5619 13.0325 11.5861 13.0343 11.6102 13.0343C11.7741 13.0343 11.9259 12.9349 11.9879 12.7774L12.212 12.1406C12.3767 11.7262 12.3647 11.2624 12.1776 10.8574L11.8164 10.0744L11.5913 9.58636C11.4395 9.25664 11.1248 9.08622 10.8084 9.08622C10.6169 9.08622 10.4255 9.14841 10.2686 9.27655C10.2022 9.33009 10.1428 9.39587 10.0918 9.47292L9.86249 9.82076C9.34179 10.6098 8.47176 11.0977 7.52861 11.1307C7.51374 11.1309 7.49927 11.1315 7.48511 11.132L7.48496 11.132L7.47312 11.1325H7.47279L7.42757 11.1341L7.61301 10.7275C7.61904 10.7146 7.62247 10.7007 7.6259 10.6869L7.6259 10.6869C7.70425 10.7327 7.79403 10.7603 7.88968 10.7647H7.89148L7.89833 10.765L7.90176 10.7652C7.90519 10.7655 7.90862 10.7657 7.91204 10.7657L7.91892 10.7654L7.92233 10.7652C7.92331 10.7651 7.92429 10.7651 7.92527 10.7651H7.92788H7.93016H7.93278L7.94828 10.7642C8.11804 10.753 8.26642 10.6683 8.36207 10.5401C8.38884 10.5444 8.41643 10.5462 8.44401 10.5462C8.59402 10.5462 8.73457 10.4882 8.84067 10.3818C8.97093 10.252 9.0243 10.073 8.99933 9.90336C9.13726 9.80036 9.22606 9.6368 9.22606 9.45251C9.22606 9.35914 9.2019 9.26822 9.15799 9.18694C9.16533 9.16294 9.17186 9.1409 9.17774 9.12083V9.12034L9.18362 9.10059L9.18802 9.0859L9.21381 9.0002C9.33803 8.60649 9.34489 8.45419 9.34228 8.24999C9.34146 8.17817 9.34064 8.10373 9.35093 7.99388L9.35207 7.98376C9.35419 7.9627 9.35664 7.94067 9.35958 7.91683C9.36301 7.88386 9.37084 7.85187 9.38031 7.81987L9.37949 7.81808C9.40969 7.7203 9.46486 7.62775 9.54076 7.55071C9.60361 7.48754 9.64589 7.40951 9.66743 7.32479L9.77598 7.26342C10.082 7.125 10.4139 7.05318 10.7493 7.05318C11.064 7.05318 11.3727 7.11635 11.6572 7.23567C11.9417 7.35499 12.2031 7.52981 12.4246 7.75393L12.4651 7.79539L12.467 7.79718C12.5785 7.90018 12.761 7.85872 12.8127 7.71606C12.8472 7.62106 12.8628 7.51937 12.8584 7.41506C12.8491 7.19894 12.7546 7.00111 12.5922 6.85812L10.962 5.42315C10.6277 5.12885 10.4098 4.72387 10.3486 4.28282C10.2874 3.84161 10.3866 3.39256 10.628 3.01843C10.7503 2.82892 11.0165 2.78844 11.1909 2.94759C11.325 3.07001 11.3435 3.27291 11.246 3.42618C11.1037 3.6503 11.0454 3.918 11.082 4.18096C11.1189 4.44638 11.25 4.69024 11.4512 4.86735L13.0814 6.30231C13.3968 6.57981 13.5802 6.96389 13.598 7.38356C13.616 7.80322 13.4657 8.20151 13.1751 8.50479C13.1165 8.56633 13.0904 8.65219 13.1062 8.7356ZM7.16369 10.5076L7.15879 10.5011C7.09415 10.4733 7.03457 10.4345 6.98381 10.3834C6.85355 10.2536 6.80197 10.0745 6.82596 9.90495L6.82417 9.90315C6.68705 9.80015 6.59744 9.63659 6.59744 9.45231C6.59744 9.29316 6.66387 9.14951 6.77079 9.04733C6.78368 8.68055 6.79838 8.21665 6.81045 7.75731C6.80915 7.7565 6.80784 7.75536 6.80654 7.75421L6.80474 7.75274L6.80441 7.7525L6.80262 7.75127C6.58879 7.5696 6.42588 7.32818 6.33872 7.04954C6.25596 6.78397 6.10154 6.54598 5.89212 6.3625L5.43686 5.96357L5.4447 5.85894C5.4447 5.85502 5.44486 5.85094 5.44519 5.84686L5.44539 5.84271L5.44568 5.83478C5.44568 5.6833 5.33272 5.55271 5.1801 5.5328C5.16721 5.531 5.15431 5.53019 5.14125 5.53019C5.03956 5.53019 4.94374 5.58128 4.88775 5.66779C4.87143 5.69195 4.85494 5.71709 4.83944 5.74223H4.57647C4.4756 5.74223 4.37733 5.76377 4.28772 5.80621C4.1981 5.84767 4.11796 5.90823 4.05234 5.98528C3.99717 6.05024 3.93073 6.10476 3.85581 6.14443L3.47221 6.35206C3.36448 6.41082 3.32041 6.54238 3.37215 6.65403L3.61439 7.18013C3.65324 7.26403 3.736 7.31512 3.82561 7.31512C3.84193 7.31512 3.85923 7.31333 3.87556 7.3099L4.21965 7.22861C4.25066 7.22077 4.28168 7.21735 4.31269 7.21735C4.45927 7.21735 4.5972 7.297 4.6687 7.43102L4.76174 7.60404C4.87812 7.82114 4.93068 8.06598 4.91354 8.31181C4.90946 8.37237 4.90473 8.43864 4.89951 8.50867L4.89686 8.54513L4.892 8.61297C4.86964 8.92784 4.90326 9.24027 4.98765 9.53702C5.11954 10.0052 5.37728 10.4333 5.74031 10.7725C5.76186 10.7933 5.78422 10.8132 5.80658 10.8331C5.74392 11.1926 5.67534 11.5896 5.61308 11.9499L5.58997 12.0836L5.58949 12.086V12.0869L5.54708 12.3321C5.51603 12.5118 5.48841 12.6716 5.46625 12.7989C5.44209 12.9365 5.32309 13.0307 5.1912 13.0307C5.16525 13.0307 5.13864 13.0272 5.11269 13.0194L4.84368 12.9397C4.81185 12.9303 4.77986 12.9259 4.74884 12.9259C4.52212 12.9259 4.34958 13.1647 4.45062 13.3904L4.56701 13.6232C4.63426 13.759 4.773 13.8447 4.92481 13.8447H5.65935C5.79646 13.8447 5.92052 13.765 5.97749 13.6405L7.11129 11.1556L7.35875 10.6122C7.29411 10.607 7.23192 10.5802 7.18278 10.5309C7.17528 10.5234 7.1694 10.5154 7.16352 10.5073L7.16369 10.5076ZM4.43185 6.34096H4.43103C4.40949 6.34618 4.38794 6.34879 4.36721 6.34879C4.29131 6.34879 4.22748 6.31239 4.21296 6.25444C4.19402 6.18083 4.26127 6.10052 4.36297 6.0744C4.38451 6.06918 4.40606 6.06657 4.42679 6.06657C4.50269 6.06657 4.56652 6.10297 4.58202 6.16091C4.60096 6.23453 4.53371 6.31484 4.43201 6.34096H4.43185ZM11.7239 10.5496L11.673 10.8152L11.6728 10.815C11.6288 11.0504 11.5099 11.2659 11.334 11.4294L10.1891 12.4937C10.058 12.6156 9.88642 12.6832 9.70703 12.6832H9.09655C8.95339 12.6832 8.82493 12.5933 8.77661 12.4583L8.72667 12.3199C8.64815 12.1018 8.81204 11.8777 9.03534 11.8777C9.04905 11.8777 9.06374 11.8785 9.07843 11.8803L9.28198 11.9062C9.31201 11.9105 9.34139 11.9123 9.37159 11.9123C9.57073 11.9123 9.76139 11.8284 9.89671 11.6795L10.2839 11.252L10.2831 11.2528C10.546 10.9629 10.6392 10.5571 10.5297 10.1817L10.3564 9.58558C10.3822 9.55277 10.4106 9.52159 10.4426 9.49564C10.4439 9.49466 10.445 9.49352 10.446 9.49254C10.447 9.49156 10.4481 9.49042 10.4494 9.4896C10.5495 9.41092 10.6761 9.36767 10.8064 9.36767C10.9858 9.36767 11.2195 9.45679 11.3341 9.70506L11.5566 10.1861L11.5579 10.1899L11.5592 10.1931L11.7239 10.5496Z" fill="white"/>
</g>
<defs>
<linearGradient id="paint0_linear_7946_331524" x1="8" y1="-8" x2="-8" y2="8" gradientUnits="userSpaceOnUse">
<stop stop-color="#60DD43"/>
<stop offset="0.491602" stop-color="#22BE54"/>
<stop offset="1" stop-color="#07A760"/>
</linearGradient>
<clipPath id="clip0_7946_331524">
<rect width="16" height="16" rx="4" fill="white"/>
</clipPath>
</defs>
</svg>
