<svg width="136" height="40" viewBox="0 0 136 40" fill="none" xmlns="http://www.w3.org/2000/svg">
<rect x="0.5" y="0.5" width="135" height="39" rx="3.5" fill="#171917"/>
<mask id="path-2-inside-1_269_5015" fill="white">
<path fill-rule="evenodd" clip-rule="evenodd" d="M107.936 29.9999H109.802V17.4989H107.936V29.9999ZM124.743 22.0019L122.604 27.4219H122.54L120.32 22.0019H118.31L121.639 29.5769L119.742 33.7909H121.687L126.818 22.0019H124.743ZM114.161 28.5799C113.549 28.5799 112.697 28.2749 112.697 27.5189C112.697 26.5539 113.758 26.1839 114.675 26.1839C115.495 26.1839 115.881 26.3599 116.38 26.6019C116.235 27.7599 115.238 28.5799 114.161 28.5799ZM114.386 21.7289C113.035 21.7289 111.636 22.3239 111.057 23.6429L112.713 24.3339C113.067 23.6429 113.726 23.4179 114.418 23.4179C115.383 23.4179 116.364 23.9959 116.38 25.0259V25.1539C116.042 24.9619 115.319 24.6719 114.434 24.6719C112.649 24.6719 110.831 25.6529 110.831 27.4859C110.831 29.1589 112.295 30.2369 113.935 30.2369C115.19 30.2369 115.881 29.6739 116.316 29.0139H116.38V29.9799H118.182V25.1869C118.182 22.9669 116.525 21.7289 114.386 21.7289ZM102.854 23.5239H100.2V19.2389H102.854C104.249 19.2389 105.041 20.3939 105.041 21.3809C105.041 22.3499 104.249 23.5239 102.854 23.5239ZM102.806 17.4989H98.334V29.9999H100.2V25.2639H102.806C104.874 25.2639 106.907 23.7669 106.907 21.3809C106.907 18.9959 104.874 17.4989 102.806 17.4989ZM78.425 28.5829C77.136 28.5829 76.057 27.5029 76.057 26.0209C76.057 24.5229 77.136 23.4269 78.425 23.4269C79.698 23.4269 80.696 24.5229 80.696 26.0209C80.696 27.5029 79.698 28.5829 78.425 28.5829ZM80.567 22.7019H80.503C80.084 22.2029 79.279 21.7519 78.264 21.7519C76.137 21.7519 74.188 23.6209 74.188 26.0209C74.188 28.4049 76.137 30.2579 78.264 30.2579C79.279 30.2579 80.084 29.8069 80.503 29.2919H80.567V29.9029C80.567 31.5309 79.698 32.4009 78.296 32.4009C77.152 32.4009 76.443 31.5789 76.153 30.8859L74.526 31.5629C74.993 32.6909 76.234 34.0759 78.296 34.0759C80.487 34.0759 82.34 32.7869 82.34 29.6459V22.0089H80.567V22.7019ZM83.628 29.9999H85.497V17.4989H83.628V29.9999ZM88.252 25.8759C88.204 24.2329 89.525 23.3949 90.475 23.3949C91.217 23.3949 91.845 23.7659 92.054 24.2969L88.252 25.8759ZM94.052 24.4579C93.698 23.5079 92.618 21.7519 90.411 21.7519C88.22 21.7519 86.399 23.4759 86.399 26.0049C86.399 28.3889 88.204 30.2579 90.62 30.2579C92.57 30.2579 93.698 29.0659 94.164 28.3729L92.715 27.4059C92.231 28.1149 91.571 28.5829 90.62 28.5829C89.67 28.5829 88.993 28.1479 88.558 27.2939L94.245 24.9419L94.052 24.4579ZM48.744 23.0569V24.8609H53.061C52.933 25.8759 52.594 26.6169 52.079 27.1319C51.45 27.7609 50.467 28.4539 48.744 28.4539C46.085 28.4539 44.007 26.3109 44.007 23.6519C44.007 20.9939 46.085 18.8519 48.744 18.8519C50.178 18.8519 51.225 19.4159 51.998 20.1409L53.271 18.8679C52.191 17.8369 50.758 17.0469 48.744 17.0469C45.102 17.0469 42.041 20.0119 42.041 23.6519C42.041 27.2939 45.102 30.2579 48.744 30.2579C50.709 30.2579 52.191 29.6129 53.351 28.4049C54.543 27.2129 54.914 25.5379 54.914 24.1839C54.914 23.7659 54.882 23.3789 54.817 23.0569H48.744ZM59.822 28.5829C58.534 28.5829 57.422 27.5189 57.422 26.0049C57.422 24.4739 58.534 23.4269 59.822 23.4269C61.111 23.4269 62.223 24.4739 62.223 26.0049C62.223 27.5189 61.111 28.5829 59.822 28.5829ZM59.822 21.7519C57.47 21.7519 55.553 23.5399 55.553 26.0049C55.553 28.4539 57.47 30.2579 59.822 30.2579C62.175 30.2579 64.092 28.4539 64.092 26.0049C64.092 23.5399 62.175 21.7519 59.822 21.7519ZM69.136 28.5829C67.847 28.5829 66.735 27.5189 66.735 26.0049C66.735 24.4739 67.847 23.4269 69.136 23.4269C70.425 23.4269 71.536 24.4739 71.536 26.0049C71.536 27.5189 70.425 28.5829 69.136 28.5829ZM69.136 21.7519C66.784 21.7519 64.867 23.5399 64.867 26.0049C64.867 28.4539 66.784 30.2579 69.136 30.2579C71.488 30.2579 73.405 28.4539 73.405 26.0049C73.405 23.5399 71.488 21.7519 69.136 21.7519Z"/>
<path fill-rule="evenodd" clip-rule="evenodd" d="M44.4965 9.96684C44.5085 10.9158 44.3175 11.6818 43.9275 12.2628H46.9605V7.73684H44.4965V9.96684ZM43.1135 14.2738H42.3765V12.2628H42.9635C43.4825 11.8158 43.7365 11.0498 43.7255 9.96684V6.99984H47.7315V12.2628H48.4015V14.2738H47.6645V12.9998H43.1135V14.2738Z"/>
<path fill-rule="evenodd" clip-rule="evenodd" d="M50.5844 11.7222C51.0284 12.1722 51.5714 12.3962 52.2144 12.3962C52.8564 12.3962 53.4004 12.1722 53.8444 11.7222C54.2884 11.2722 54.5114 10.6982 54.5114 10.0002C54.5114 9.30224 54.2884 8.72724 53.8444 8.27824C53.4004 7.82824 52.8564 7.60324 52.2144 7.60324C51.5714 7.60324 51.0284 7.82824 50.5844 8.27824C50.1414 8.72724 49.9184 9.30224 49.9184 10.0002C49.9184 10.6982 50.1414 11.2722 50.5844 11.7222ZM54.4144 12.2242C53.8244 12.8312 53.0914 13.1342 52.2144 13.1342C51.3374 13.1342 50.6044 12.8312 50.0154 12.2242C49.4254 11.6182 49.1314 10.8772 49.1314 10.0002C49.1314 9.12324 49.4254 8.38124 50.0154 7.77524C50.6044 7.16924 51.3374 6.86624 52.2144 6.86624C53.0864 6.86624 53.8174 7.17024 54.4104 7.77924C55.0024 8.38824 55.2984 9.12824 55.2984 10.0002C55.2984 10.8772 55.0034 11.6182 54.4144 12.2242Z"/>
<path fill-rule="evenodd" clip-rule="evenodd" d="M59.1791 13.1338C58.2961 13.1338 57.5561 12.8348 56.9581 12.2378C56.3601 11.6398 56.0621 10.8938 56.0621 9.99984C56.0621 9.10684 56.3601 8.36084 56.9581 7.76284C57.5561 7.16484 58.2961 6.86584 59.1791 6.86584C60.0831 6.86584 60.8191 7.19284 61.3831 7.84584L60.8461 8.36584C60.4391 7.85784 59.8821 7.60384 59.1791 7.60384C58.5251 7.60384 57.9731 7.82384 57.5241 8.26584C57.0741 8.70684 56.8491 9.28484 56.8491 9.99984C56.8491 10.7148 57.0741 11.2938 57.5241 11.7348C57.9731 12.1758 58.5251 12.3968 59.1791 12.3968C59.9001 12.3968 60.5141 12.1068 61.0231 11.5258L61.5591 12.0618C61.2841 12.3908 60.9421 12.6528 60.5281 12.8448C60.1151 13.0378 59.6641 13.1338 59.1791 13.1338Z"/>
<path fill-rule="evenodd" clip-rule="evenodd" d="M64.6771 13H63.9061V7.73704H62.2301V7.00004H66.3531V7.73704H64.6771V13Z"/>
<path fill-rule="evenodd" clip-rule="evenodd" d="M71.6464 7.00004L69.3754 12.062C69.0624 12.776 68.5974 13.134 67.9774 13.134C67.7924 13.134 67.5944 13.089 67.3814 13L67.5824 12.288C67.7114 12.36 67.8454 12.396 67.9844 12.396C68.1634 12.396 68.3024 12.362 68.3994 12.292C68.4974 12.222 68.5884 12.095 68.6724 11.911L68.8904 11.433L66.8704 7.00004H67.7754L69.2584 10.444H69.2924L70.7414 7.00004H71.6464Z"/>
<path fill-rule="evenodd" clip-rule="evenodd" d="M72.5194 13V7.00004H76.8604V13H76.0884V7.73704H73.2904V13H72.5194Z"/>
<path fill-rule="evenodd" clip-rule="evenodd" d="M78.2343 13V7.00004H79.0053V9.57204H82.0053V7.00004H82.7763V13H82.0053V10.293H79.0053V13H78.2343Z"/>
<path fill-rule="evenodd" clip-rule="evenodd" d="M85.2274 11.7222C85.6714 12.1722 86.2144 12.3962 86.8574 12.3962C87.4994 12.3962 88.0434 12.1722 88.4874 11.7222C88.9314 11.2722 89.1544 10.6982 89.1544 10.0002C89.1544 9.30224 88.9314 8.72724 88.4874 8.27824C88.0434 7.82824 87.4994 7.60324 86.8574 7.60324C86.2144 7.60324 85.6714 7.82824 85.2274 8.27824C84.7844 8.72724 84.5614 9.30224 84.5614 10.0002C84.5614 10.6982 84.7844 11.2722 85.2274 11.7222ZM89.0574 12.2242C88.4674 12.8312 87.7344 13.1342 86.8574 13.1342C85.9804 13.1342 85.2474 12.8312 84.6584 12.2242C84.0684 11.6182 83.7744 10.8772 83.7744 10.0002C83.7744 9.12324 84.0684 8.38124 84.6584 7.77524C85.2474 7.16924 85.9804 6.86624 86.8574 6.86624C87.7294 6.86624 88.4604 7.17024 89.0534 7.77924C89.6454 8.38824 89.9414 9.12824 89.9414 10.0002C89.9414 10.8772 89.6464 11.6182 89.0574 12.2242Z"/>
<path fill-rule="evenodd" clip-rule="evenodd" d="M93.8642 12.2627H95.4152C95.7112 12.2627 95.9512 12.1587 96.1352 11.9517C96.3202 11.7457 96.4122 11.5197 96.4122 11.2737C96.4122 11.0277 96.3172 10.8037 96.1272 10.5987C95.9372 10.3957 95.6882 10.2927 95.3812 10.2927H93.8642V12.2627ZM93.8642 9.57274H95.2632C95.5542 9.57274 95.7882 9.47674 95.9642 9.28374C96.1392 9.09074 96.2272 8.87974 96.2272 8.65074C96.2272 8.42174 96.1422 8.21174 95.9712 8.02274C95.8012 7.83274 95.5772 7.73774 95.2982 7.73774H93.8642V9.57274ZM93.0932 12.9997V6.99974H95.2632C95.7332 6.99974 96.1392 7.15574 96.4832 7.46474C96.8272 7.77574 96.9992 8.16474 96.9992 8.63374C96.9992 8.91874 96.9252 9.17074 96.7762 9.38774C96.6292 9.60675 96.4312 9.77074 96.1852 9.88274V9.91574C96.4812 10.0167 96.7242 10.1897 96.9152 10.4357C97.1042 10.6817 97.2002 10.9667 97.2002 11.2907C97.2002 11.7827 97.0192 12.1897 96.6592 12.5137C96.2992 12.8377 95.8732 12.9997 95.3812 12.9997H93.0932Z"/>
</mask>
<path fill-rule="evenodd" clip-rule="evenodd" d="M107.936 29.9999H109.802V17.4989H107.936V29.9999ZM124.743 22.0019L122.604 27.4219H122.54L120.32 22.0019H118.31L121.639 29.5769L119.742 33.7909H121.687L126.818 22.0019H124.743ZM114.161 28.5799C113.549 28.5799 112.697 28.2749 112.697 27.5189C112.697 26.5539 113.758 26.1839 114.675 26.1839C115.495 26.1839 115.881 26.3599 116.38 26.6019C116.235 27.7599 115.238 28.5799 114.161 28.5799ZM114.386 21.7289C113.035 21.7289 111.636 22.3239 111.057 23.6429L112.713 24.3339C113.067 23.6429 113.726 23.4179 114.418 23.4179C115.383 23.4179 116.364 23.9959 116.38 25.0259V25.1539C116.042 24.9619 115.319 24.6719 114.434 24.6719C112.649 24.6719 110.831 25.6529 110.831 27.4859C110.831 29.1589 112.295 30.2369 113.935 30.2369C115.19 30.2369 115.881 29.6739 116.316 29.0139H116.38V29.9799H118.182V25.1869C118.182 22.9669 116.525 21.7289 114.386 21.7289ZM102.854 23.5239H100.2V19.2389H102.854C104.249 19.2389 105.041 20.3939 105.041 21.3809C105.041 22.3499 104.249 23.5239 102.854 23.5239ZM102.806 17.4989H98.334V29.9999H100.2V25.2639H102.806C104.874 25.2639 106.907 23.7669 106.907 21.3809C106.907 18.9959 104.874 17.4989 102.806 17.4989ZM78.425 28.5829C77.136 28.5829 76.057 27.5029 76.057 26.0209C76.057 24.5229 77.136 23.4269 78.425 23.4269C79.698 23.4269 80.696 24.5229 80.696 26.0209C80.696 27.5029 79.698 28.5829 78.425 28.5829ZM80.567 22.7019H80.503C80.084 22.2029 79.279 21.7519 78.264 21.7519C76.137 21.7519 74.188 23.6209 74.188 26.0209C74.188 28.4049 76.137 30.2579 78.264 30.2579C79.279 30.2579 80.084 29.8069 80.503 29.2919H80.567V29.9029C80.567 31.5309 79.698 32.4009 78.296 32.4009C77.152 32.4009 76.443 31.5789 76.153 30.8859L74.526 31.5629C74.993 32.6909 76.234 34.0759 78.296 34.0759C80.487 34.0759 82.34 32.7869 82.34 29.6459V22.0089H80.567V22.7019ZM83.628 29.9999H85.497V17.4989H83.628V29.9999ZM88.252 25.8759C88.204 24.2329 89.525 23.3949 90.475 23.3949C91.217 23.3949 91.845 23.7659 92.054 24.2969L88.252 25.8759ZM94.052 24.4579C93.698 23.5079 92.618 21.7519 90.411 21.7519C88.22 21.7519 86.399 23.4759 86.399 26.0049C86.399 28.3889 88.204 30.2579 90.62 30.2579C92.57 30.2579 93.698 29.0659 94.164 28.3729L92.715 27.4059C92.231 28.1149 91.571 28.5829 90.62 28.5829C89.67 28.5829 88.993 28.1479 88.558 27.2939L94.245 24.9419L94.052 24.4579ZM48.744 23.0569V24.8609H53.061C52.933 25.8759 52.594 26.6169 52.079 27.1319C51.45 27.7609 50.467 28.4539 48.744 28.4539C46.085 28.4539 44.007 26.3109 44.007 23.6519C44.007 20.9939 46.085 18.8519 48.744 18.8519C50.178 18.8519 51.225 19.4159 51.998 20.1409L53.271 18.8679C52.191 17.8369 50.758 17.0469 48.744 17.0469C45.102 17.0469 42.041 20.0119 42.041 23.6519C42.041 27.2939 45.102 30.2579 48.744 30.2579C50.709 30.2579 52.191 29.6129 53.351 28.4049C54.543 27.2129 54.914 25.5379 54.914 24.1839C54.914 23.7659 54.882 23.3789 54.817 23.0569H48.744ZM59.822 28.5829C58.534 28.5829 57.422 27.5189 57.422 26.0049C57.422 24.4739 58.534 23.4269 59.822 23.4269C61.111 23.4269 62.223 24.4739 62.223 26.0049C62.223 27.5189 61.111 28.5829 59.822 28.5829ZM59.822 21.7519C57.47 21.7519 55.553 23.5399 55.553 26.0049C55.553 28.4539 57.47 30.2579 59.822 30.2579C62.175 30.2579 64.092 28.4539 64.092 26.0049C64.092 23.5399 62.175 21.7519 59.822 21.7519ZM69.136 28.5829C67.847 28.5829 66.735 27.5189 66.735 26.0049C66.735 24.4739 67.847 23.4269 69.136 23.4269C70.425 23.4269 71.536 24.4739 71.536 26.0049C71.536 27.5189 70.425 28.5829 69.136 28.5829ZM69.136 21.7519C66.784 21.7519 64.867 23.5399 64.867 26.0049C64.867 28.4539 66.784 30.2579 69.136 30.2579C71.488 30.2579 73.405 28.4539 73.405 26.0049C73.405 23.5399 71.488 21.7519 69.136 21.7519Z" fill="white"/>
<path fill-rule="evenodd" clip-rule="evenodd" d="M44.4965 9.96684C44.5085 10.9158 44.3175 11.6818 43.9275 12.2628H46.9605V7.73684H44.4965V9.96684ZM43.1135 14.2738H42.3765V12.2628H42.9635C43.4825 11.8158 43.7365 11.0498 43.7255 9.96684V6.99984H47.7315V12.2628H48.4015V14.2738H47.6645V12.9998H43.1135V14.2738Z" fill="white"/>
<path fill-rule="evenodd" clip-rule="evenodd" d="M50.5844 11.7222C51.0284 12.1722 51.5714 12.3962 52.2144 12.3962C52.8564 12.3962 53.4004 12.1722 53.8444 11.7222C54.2884 11.2722 54.5114 10.6982 54.5114 10.0002C54.5114 9.30224 54.2884 8.72724 53.8444 8.27824C53.4004 7.82824 52.8564 7.60324 52.2144 7.60324C51.5714 7.60324 51.0284 7.82824 50.5844 8.27824C50.1414 8.72724 49.9184 9.30224 49.9184 10.0002C49.9184 10.6982 50.1414 11.2722 50.5844 11.7222ZM54.4144 12.2242C53.8244 12.8312 53.0914 13.1342 52.2144 13.1342C51.3374 13.1342 50.6044 12.8312 50.0154 12.2242C49.4254 11.6182 49.1314 10.8772 49.1314 10.0002C49.1314 9.12324 49.4254 8.38124 50.0154 7.77524C50.6044 7.16924 51.3374 6.86624 52.2144 6.86624C53.0864 6.86624 53.8174 7.17024 54.4104 7.77924C55.0024 8.38824 55.2984 9.12824 55.2984 10.0002C55.2984 10.8772 55.0034 11.6182 54.4144 12.2242Z" fill="white"/>
<path fill-rule="evenodd" clip-rule="evenodd" d="M59.1791 13.1338C58.2961 13.1338 57.5561 12.8348 56.9581 12.2378C56.3601 11.6398 56.0621 10.8938 56.0621 9.99984C56.0621 9.10684 56.3601 8.36084 56.9581 7.76284C57.5561 7.16484 58.2961 6.86584 59.1791 6.86584C60.0831 6.86584 60.8191 7.19284 61.3831 7.84584L60.8461 8.36584C60.4391 7.85784 59.8821 7.60384 59.1791 7.60384C58.5251 7.60384 57.9731 7.82384 57.5241 8.26584C57.0741 8.70684 56.8491 9.28484 56.8491 9.99984C56.8491 10.7148 57.0741 11.2938 57.5241 11.7348C57.9731 12.1758 58.5251 12.3968 59.1791 12.3968C59.9001 12.3968 60.5141 12.1068 61.0231 11.5258L61.5591 12.0618C61.2841 12.3908 60.9421 12.6528 60.5281 12.8448C60.1151 13.0378 59.6641 13.1338 59.1791 13.1338Z" fill="white"/>
<path fill-rule="evenodd" clip-rule="evenodd" d="M64.6771 13H63.9061V7.73704H62.2301V7.00004H66.3531V7.73704H64.6771V13Z" fill="white"/>
<path fill-rule="evenodd" clip-rule="evenodd" d="M71.6464 7.00004L69.3754 12.062C69.0624 12.776 68.5974 13.134 67.9774 13.134C67.7924 13.134 67.5944 13.089 67.3814 13L67.5824 12.288C67.7114 12.36 67.8454 12.396 67.9844 12.396C68.1634 12.396 68.3024 12.362 68.3994 12.292C68.4974 12.222 68.5884 12.095 68.6724 11.911L68.8904 11.433L66.8704 7.00004H67.7754L69.2584 10.444H69.2924L70.7414 7.00004H71.6464Z" fill="white"/>
<path fill-rule="evenodd" clip-rule="evenodd" d="M72.5194 13V7.00004H76.8604V13H76.0884V7.73704H73.2904V13H72.5194Z" fill="white"/>
<path fill-rule="evenodd" clip-rule="evenodd" d="M78.2343 13V7.00004H79.0053V9.57204H82.0053V7.00004H82.7763V13H82.0053V10.293H79.0053V13H78.2343Z" fill="white"/>
<path fill-rule="evenodd" clip-rule="evenodd" d="M85.2274 11.7222C85.6714 12.1722 86.2144 12.3962 86.8574 12.3962C87.4994 12.3962 88.0434 12.1722 88.4874 11.7222C88.9314 11.2722 89.1544 10.6982 89.1544 10.0002C89.1544 9.30224 88.9314 8.72724 88.4874 8.27824C88.0434 7.82824 87.4994 7.60324 86.8574 7.60324C86.2144 7.60324 85.6714 7.82824 85.2274 8.27824C84.7844 8.72724 84.5614 9.30224 84.5614 10.0002C84.5614 10.6982 84.7844 11.2722 85.2274 11.7222ZM89.0574 12.2242C88.4674 12.8312 87.7344 13.1342 86.8574 13.1342C85.9804 13.1342 85.2474 12.8312 84.6584 12.2242C84.0684 11.6182 83.7744 10.8772 83.7744 10.0002C83.7744 9.12324 84.0684 8.38124 84.6584 7.77524C85.2474 7.16924 85.9804 6.86624 86.8574 6.86624C87.7294 6.86624 88.4604 7.17024 89.0534 7.77924C89.6454 8.38824 89.9414 9.12824 89.9414 10.0002C89.9414 10.8772 89.6464 11.6182 89.0574 12.2242Z" fill="white"/>
<path fill-rule="evenodd" clip-rule="evenodd" d="M93.8642 12.2627H95.4152C95.7112 12.2627 95.9512 12.1587 96.1352 11.9517C96.3202 11.7457 96.4122 11.5197 96.4122 11.2737C96.4122 11.0277 96.3172 10.8037 96.1272 10.5987C95.9372 10.3957 95.6882 10.2927 95.3812 10.2927H93.8642V12.2627ZM93.8642 9.57274H95.2632C95.5542 9.57274 95.7882 9.47674 95.9642 9.28374C96.1392 9.09074 96.2272 8.87974 96.2272 8.65074C96.2272 8.42174 96.1422 8.21174 95.9712 8.02274C95.8012 7.83274 95.5772 7.73774 95.2982 7.73774H93.8642V9.57274ZM93.0932 12.9997V6.99974H95.2632C95.7332 6.99974 96.1392 7.15574 96.4832 7.46474C96.8272 7.77574 96.9992 8.16474 96.9992 8.63374C96.9992 8.91874 96.9252 9.17074 96.7762 9.38774C96.6292 9.60675 96.4312 9.77074 96.1852 9.88274V9.91574C96.4812 10.0167 96.7242 10.1897 96.9152 10.4357C97.1042 10.6817 97.2002 10.9667 97.2002 11.2907C97.2002 11.7827 97.0192 12.1897 96.6592 12.5137C96.2992 12.8377 95.8732 12.9997 95.3812 12.9997H93.0932Z" fill="white"/>
<path fill-rule="evenodd" clip-rule="evenodd" d="M107.936 29.9999H109.802V17.4989H107.936V29.9999ZM124.743 22.0019L122.604 27.4219H122.54L120.32 22.0019H118.31L121.639 29.5769L119.742 33.7909H121.687L126.818 22.0019H124.743ZM114.161 28.5799C113.549 28.5799 112.697 28.2749 112.697 27.5189C112.697 26.5539 113.758 26.1839 114.675 26.1839C115.495 26.1839 115.881 26.3599 116.38 26.6019C116.235 27.7599 115.238 28.5799 114.161 28.5799ZM114.386 21.7289C113.035 21.7289 111.636 22.3239 111.057 23.6429L112.713 24.3339C113.067 23.6429 113.726 23.4179 114.418 23.4179C115.383 23.4179 116.364 23.9959 116.38 25.0259V25.1539C116.042 24.9619 115.319 24.6719 114.434 24.6719C112.649 24.6719 110.831 25.6529 110.831 27.4859C110.831 29.1589 112.295 30.2369 113.935 30.2369C115.19 30.2369 115.881 29.6739 116.316 29.0139H116.38V29.9799H118.182V25.1869C118.182 22.9669 116.525 21.7289 114.386 21.7289ZM102.854 23.5239H100.2V19.2389H102.854C104.249 19.2389 105.041 20.3939 105.041 21.3809C105.041 22.3499 104.249 23.5239 102.854 23.5239ZM102.806 17.4989H98.334V29.9999H100.2V25.2639H102.806C104.874 25.2639 106.907 23.7669 106.907 21.3809C106.907 18.9959 104.874 17.4989 102.806 17.4989ZM78.425 28.5829C77.136 28.5829 76.057 27.5029 76.057 26.0209C76.057 24.5229 77.136 23.4269 78.425 23.4269C79.698 23.4269 80.696 24.5229 80.696 26.0209C80.696 27.5029 79.698 28.5829 78.425 28.5829ZM80.567 22.7019H80.503C80.084 22.2029 79.279 21.7519 78.264 21.7519C76.137 21.7519 74.188 23.6209 74.188 26.0209C74.188 28.4049 76.137 30.2579 78.264 30.2579C79.279 30.2579 80.084 29.8069 80.503 29.2919H80.567V29.9029C80.567 31.5309 79.698 32.4009 78.296 32.4009C77.152 32.4009 76.443 31.5789 76.153 30.8859L74.526 31.5629C74.993 32.6909 76.234 34.0759 78.296 34.0759C80.487 34.0759 82.34 32.7869 82.34 29.6459V22.0089H80.567V22.7019ZM83.628 29.9999H85.497V17.4989H83.628V29.9999ZM88.252 25.8759C88.204 24.2329 89.525 23.3949 90.475 23.3949C91.217 23.3949 91.845 23.7659 92.054 24.2969L88.252 25.8759ZM94.052 24.4579C93.698 23.5079 92.618 21.7519 90.411 21.7519C88.22 21.7519 86.399 23.4759 86.399 26.0049C86.399 28.3889 88.204 30.2579 90.62 30.2579C92.57 30.2579 93.698 29.0659 94.164 28.3729L92.715 27.4059C92.231 28.1149 91.571 28.5829 90.62 28.5829C89.67 28.5829 88.993 28.1479 88.558 27.2939L94.245 24.9419L94.052 24.4579ZM48.744 23.0569V24.8609H53.061C52.933 25.8759 52.594 26.6169 52.079 27.1319C51.45 27.7609 50.467 28.4539 48.744 28.4539C46.085 28.4539 44.007 26.3109 44.007 23.6519C44.007 20.9939 46.085 18.8519 48.744 18.8519C50.178 18.8519 51.225 19.4159 51.998 20.1409L53.271 18.8679C52.191 17.8369 50.758 17.0469 48.744 17.0469C45.102 17.0469 42.041 20.0119 42.041 23.6519C42.041 27.2939 45.102 30.2579 48.744 30.2579C50.709 30.2579 52.191 29.6129 53.351 28.4049C54.543 27.2129 54.914 25.5379 54.914 24.1839C54.914 23.7659 54.882 23.3789 54.817 23.0569H48.744ZM59.822 28.5829C58.534 28.5829 57.422 27.5189 57.422 26.0049C57.422 24.4739 58.534 23.4269 59.822 23.4269C61.111 23.4269 62.223 24.4739 62.223 26.0049C62.223 27.5189 61.111 28.5829 59.822 28.5829ZM59.822 21.7519C57.47 21.7519 55.553 23.5399 55.553 26.0049C55.553 28.4539 57.47 30.2579 59.822 30.2579C62.175 30.2579 64.092 28.4539 64.092 26.0049C64.092 23.5399 62.175 21.7519 59.822 21.7519ZM69.136 28.5829C67.847 28.5829 66.735 27.5189 66.735 26.0049C66.735 24.4739 67.847 23.4269 69.136 23.4269C70.425 23.4269 71.536 24.4739 71.536 26.0049C71.536 27.5189 70.425 28.5829 69.136 28.5829ZM69.136 21.7519C66.784 21.7519 64.867 23.5399 64.867 26.0049C64.867 28.4539 66.784 30.2579 69.136 30.2579C71.488 30.2579 73.405 28.4539 73.405 26.0049C73.405 23.5399 71.488 21.7519 69.136 21.7519Z" stroke="white" stroke-width="0.4" mask="url(#path-2-inside-1_269_5015)"/>
<path fill-rule="evenodd" clip-rule="evenodd" d="M44.4965 9.96684C44.5085 10.9158 44.3175 11.6818 43.9275 12.2628H46.9605V7.73684H44.4965V9.96684ZM43.1135 14.2738H42.3765V12.2628H42.9635C43.4825 11.8158 43.7365 11.0498 43.7255 9.96684V6.99984H47.7315V12.2628H48.4015V14.2738H47.6645V12.9998H43.1135V14.2738Z" stroke="white" stroke-width="0.4" mask="url(#path-2-inside-1_269_5015)"/>
<path fill-rule="evenodd" clip-rule="evenodd" d="M50.5844 11.7222C51.0284 12.1722 51.5714 12.3962 52.2144 12.3962C52.8564 12.3962 53.4004 12.1722 53.8444 11.7222C54.2884 11.2722 54.5114 10.6982 54.5114 10.0002C54.5114 9.30224 54.2884 8.72724 53.8444 8.27824C53.4004 7.82824 52.8564 7.60324 52.2144 7.60324C51.5714 7.60324 51.0284 7.82824 50.5844 8.27824C50.1414 8.72724 49.9184 9.30224 49.9184 10.0002C49.9184 10.6982 50.1414 11.2722 50.5844 11.7222ZM54.4144 12.2242C53.8244 12.8312 53.0914 13.1342 52.2144 13.1342C51.3374 13.1342 50.6044 12.8312 50.0154 12.2242C49.4254 11.6182 49.1314 10.8772 49.1314 10.0002C49.1314 9.12324 49.4254 8.38124 50.0154 7.77524C50.6044 7.16924 51.3374 6.86624 52.2144 6.86624C53.0864 6.86624 53.8174 7.17024 54.4104 7.77924C55.0024 8.38824 55.2984 9.12824 55.2984 10.0002C55.2984 10.8772 55.0034 11.6182 54.4144 12.2242Z" stroke="white" stroke-width="0.4" mask="url(#path-2-inside-1_269_5015)"/>
<path fill-rule="evenodd" clip-rule="evenodd" d="M59.1791 13.1338C58.2961 13.1338 57.5561 12.8348 56.9581 12.2378C56.3601 11.6398 56.0621 10.8938 56.0621 9.99984C56.0621 9.10684 56.3601 8.36084 56.9581 7.76284C57.5561 7.16484 58.2961 6.86584 59.1791 6.86584C60.0831 6.86584 60.8191 7.19284 61.3831 7.84584L60.8461 8.36584C60.4391 7.85784 59.8821 7.60384 59.1791 7.60384C58.5251 7.60384 57.9731 7.82384 57.5241 8.26584C57.0741 8.70684 56.8491 9.28484 56.8491 9.99984C56.8491 10.7148 57.0741 11.2938 57.5241 11.7348C57.9731 12.1758 58.5251 12.3968 59.1791 12.3968C59.9001 12.3968 60.5141 12.1068 61.0231 11.5258L61.5591 12.0618C61.2841 12.3908 60.9421 12.6528 60.5281 12.8448C60.1151 13.0378 59.6641 13.1338 59.1791 13.1338Z" stroke="white" stroke-width="0.4" mask="url(#path-2-inside-1_269_5015)"/>
<path fill-rule="evenodd" clip-rule="evenodd" d="M64.6771 13H63.9061V7.73704H62.2301V7.00004H66.3531V7.73704H64.6771V13Z" stroke="white" stroke-width="0.4" mask="url(#path-2-inside-1_269_5015)"/>
<path fill-rule="evenodd" clip-rule="evenodd" d="M71.6464 7.00004L69.3754 12.062C69.0624 12.776 68.5974 13.134 67.9774 13.134C67.7924 13.134 67.5944 13.089 67.3814 13L67.5824 12.288C67.7114 12.36 67.8454 12.396 67.9844 12.396C68.1634 12.396 68.3024 12.362 68.3994 12.292C68.4974 12.222 68.5884 12.095 68.6724 11.911L68.8904 11.433L66.8704 7.00004H67.7754L69.2584 10.444H69.2924L70.7414 7.00004H71.6464Z" stroke="white" stroke-width="0.4" mask="url(#path-2-inside-1_269_5015)"/>
<path fill-rule="evenodd" clip-rule="evenodd" d="M72.5194 13V7.00004H76.8604V13H76.0884V7.73704H73.2904V13H72.5194Z" stroke="white" stroke-width="0.4" mask="url(#path-2-inside-1_269_5015)"/>
<path fill-rule="evenodd" clip-rule="evenodd" d="M78.2343 13V7.00004H79.0053V9.57204H82.0053V7.00004H82.7763V13H82.0053V10.293H79.0053V13H78.2343Z" stroke="white" stroke-width="0.4" mask="url(#path-2-inside-1_269_5015)"/>
<path fill-rule="evenodd" clip-rule="evenodd" d="M85.2274 11.7222C85.6714 12.1722 86.2144 12.3962 86.8574 12.3962C87.4994 12.3962 88.0434 12.1722 88.4874 11.7222C88.9314 11.2722 89.1544 10.6982 89.1544 10.0002C89.1544 9.30224 88.9314 8.72724 88.4874 8.27824C88.0434 7.82824 87.4994 7.60324 86.8574 7.60324C86.2144 7.60324 85.6714 7.82824 85.2274 8.27824C84.7844 8.72724 84.5614 9.30224 84.5614 10.0002C84.5614 10.6982 84.7844 11.2722 85.2274 11.7222ZM89.0574 12.2242C88.4674 12.8312 87.7344 13.1342 86.8574 13.1342C85.9804 13.1342 85.2474 12.8312 84.6584 12.2242C84.0684 11.6182 83.7744 10.8772 83.7744 10.0002C83.7744 9.12324 84.0684 8.38124 84.6584 7.77524C85.2474 7.16924 85.9804 6.86624 86.8574 6.86624C87.7294 6.86624 88.4604 7.17024 89.0534 7.77924C89.6454 8.38824 89.9414 9.12824 89.9414 10.0002C89.9414 10.8772 89.6464 11.6182 89.0574 12.2242Z" stroke="white" stroke-width="0.4" mask="url(#path-2-inside-1_269_5015)"/>
<path fill-rule="evenodd" clip-rule="evenodd" d="M93.8642 12.2627H95.4152C95.7112 12.2627 95.9512 12.1587 96.1352 11.9517C96.3202 11.7457 96.4122 11.5197 96.4122 11.2737C96.4122 11.0277 96.3172 10.8037 96.1272 10.5987C95.9372 10.3957 95.6882 10.2927 95.3812 10.2927H93.8642V12.2627ZM93.8642 9.57274H95.2632C95.5542 9.57274 95.7882 9.47674 95.9642 9.28374C96.1392 9.09074 96.2272 8.87974 96.2272 8.65074C96.2272 8.42174 96.1422 8.21174 95.9712 8.02274C95.8012 7.83274 95.5772 7.73774 95.2982 7.73774H93.8642V9.57274ZM93.0932 12.9997V6.99974H95.2632C95.7332 6.99974 96.1392 7.15574 96.4832 7.46474C96.8272 7.77574 96.9992 8.16474 96.9992 8.63374C96.9992 8.91874 96.9252 9.17074 96.7762 9.38774C96.6292 9.60675 96.4312 9.77074 96.1852 9.88274V9.91574C96.4812 10.0167 96.7242 10.1897 96.9152 10.4357C97.1042 10.6817 97.2002 10.9667 97.2002 11.2907C97.2002 11.7827 97.0192 12.1897 96.6592 12.5137C96.2992 12.8377 95.8732 12.9997 95.3812 12.9997H93.0932Z" stroke="white" stroke-width="0.4" mask="url(#path-2-inside-1_269_5015)"/>
<path d="M10.5442 7.39849C10.2213 7.78795 10.0578 8.28524 10.0866 8.79035V30.717C10.0578 31.2221 10.2213 31.7194 10.5442 32.1089L10.6205 32.1852L22.8994 19.8967V19.6107L10.6205 7.33175L10.5442 7.39849Z" fill="url(#paint0_linear_269_5015)"/>
<path d="M26.9892 23.9865L22.8994 19.8967V19.6107L26.9892 15.5114L27.075 15.5686L31.9275 18.3237C33.3098 19.1054 33.3098 20.3924 31.9275 21.1837L27.075 23.9388L26.9892 23.9865Z" fill="url(#paint1_linear_269_5015)"/>
<path d="M27.075 23.9388L22.8994 19.7537L10.5061 32.147C11.0875 32.6635 11.956 32.6877 12.5653 32.2042L27.0369 23.9865" fill="url(#paint2_linear_269_5015)"/>
<path d="M27.075 15.5876L12.6034 7.34129C11.9916 6.86556 11.1286 6.88953 10.5442 7.39849L22.9375 19.7918L27.075 15.5876Z" fill="url(#paint3_linear_269_5015)"/>
<rect x="0.5" y="0.5" width="135" height="39" rx="3.5" stroke="white"/>
<defs>
<linearGradient id="paint0_linear_269_5015" x1="24.0743" y1="-8.57823" x2="-9.65524" y2="8.82492" gradientUnits="userSpaceOnUse">
<stop stop-color="#00A0FF"/>
<stop offset="0.01" stop-color="#00A1FF"/>
<stop offset="0.26" stop-color="#00BEFF"/>
<stop offset="0.51" stop-color="#00D2FF"/>
<stop offset="0.76" stop-color="#00DFFF"/>
<stop offset="1" stop-color="#00E3FF"/>
</linearGradient>
<linearGradient id="paint1_linear_269_5015" x1="36.9763" y1="-10.9539" x2="-24.9607" y2="-10.9539" gradientUnits="userSpaceOnUse">
<stop stop-color="#FFE000"/>
<stop offset="0.41" stop-color="#FFBD00"/>
<stop offset="0.78" stop-color="#FFA500"/>
<stop offset="1" stop-color="#FF9C00"/>
</linearGradient>
<linearGradient id="paint2_linear_269_5015" x1="8.53656" y1="-6.06833" x2="-26.8581" y2="39.7377" gradientUnits="userSpaceOnUse">
<stop stop-color="#FF3A44"/>
<stop offset="1" stop-color="#C31162"/>
</linearGradient>
<linearGradient id="paint3_linear_269_5015" x1="0.925268" y1="4.00057" x2="8.01795" y2="15.8567" gradientUnits="userSpaceOnUse">
<stop stop-color="#32A071"/>
<stop offset="0.07" stop-color="#2DA771"/>
<stop offset="0.48" stop-color="#15CF74"/>
<stop offset="0.8" stop-color="#06E775"/>
<stop offset="1" stop-color="#00F076"/>
</linearGradient>
</defs>
</svg>
