<svg width="136" height="40" viewBox="0 0 136 40" fill="none" xmlns="http://www.w3.org/2000/svg">
<rect x="0.5" y="0.5" width="135" height="39" rx="3.5" fill="#171917"/>
<path fill-rule="evenodd" clip-rule="evenodd" d="M32.8544 19.7594C32.8293 16.9978 35.115 15.6547 35.2194 15.5914C33.9255 13.7032 31.9178 13.4452 31.2131 13.4252C29.5276 13.2485 27.8934 14.434 27.0341 14.434C26.1588 14.434 24.8367 13.4432 23.4122 13.4723C21.5792 13.5004 19.8627 14.5625 18.9221 16.2108C16.9806 19.5717 18.4282 24.5116 20.2883 27.229C21.2189 28.5591 22.306 30.0458 23.7295 29.9926C25.1218 29.9353 25.6418 29.1052 27.3222 29.1052C28.9876 29.1052 29.4755 29.9926 30.927 29.9594C32.4207 29.9353 33.3623 28.6233 34.2608 27.2802C35.3359 25.7543 35.7675 24.2526 35.7846 24.1753C35.7495 24.1632 32.8825 23.0701 32.8544 19.7594Z" fill="white"/>
<path fill-rule="evenodd" clip-rule="evenodd" d="M30.1119 11.6384C30.8608 10.7019 31.3727 9.42798 31.2312 8.13403C30.147 8.18221 28.7918 8.8839 28.0108 9.8004C27.3202 10.6075 26.7028 11.9316 26.8625 13.1743C28.0801 13.2657 29.3309 12.56 30.1119 11.6384Z" fill="white"/>
<path fill-rule="evenodd" clip-rule="evenodd" d="M46.1954 25.0698H49.9618L48.1047 19.6018H48.0535L46.1954 25.0698ZM50.4547 26.6247H45.7035L44.5621 29.9936H42.5494L47.0506 17.5279H49.1416L53.6418 29.9936H51.595L50.4547 26.6247Z" fill="white"/>
<path fill-rule="evenodd" clip-rule="evenodd" d="M61.4442 25.4501C61.4442 23.6101 60.4935 22.4004 59.042 22.4004C57.6165 22.4004 56.6579 23.6352 56.6579 25.4501C56.6579 27.2811 57.6165 28.5078 59.042 28.5078C60.4935 28.5078 61.4442 27.3072 61.4442 25.4501ZM63.3615 25.4501C63.3615 28.2739 61.8497 30.0889 59.569 30.0889C58.274 30.0889 57.2451 29.5096 56.7091 28.4988H56.6659V33H54.8008V20.9057H56.6067V22.4175H56.6408C57.1588 21.4418 58.265 20.8103 59.5349 20.8103C61.8417 20.8103 63.3615 22.6333 63.3615 25.4501Z" fill="white"/>
<path fill-rule="evenodd" clip-rule="evenodd" d="M71.4473 25.4501C71.4473 23.6101 70.4967 22.4004 69.0451 22.4004C67.6197 22.4004 66.661 23.6352 66.661 25.4501C66.661 27.2811 67.6197 28.5078 69.0451 28.5078C70.4967 28.5078 71.4473 27.3072 71.4473 25.4501ZM73.3646 25.4501C73.3646 28.2739 71.8529 30.0889 69.5721 30.0889C68.2772 30.0889 67.2482 29.5096 66.7122 28.4988H66.669V33H64.8039V20.9057H66.6098V22.4175H66.6439C67.1619 21.4418 68.2681 20.8103 69.538 20.8103C71.8448 20.8103 73.3646 22.6333 73.3646 25.4501Z" fill="white"/>
<path fill-rule="evenodd" clip-rule="evenodd" d="M79.9761 26.5206C80.1146 27.7563 81.3152 28.5684 82.9565 28.5684C84.5285 28.5684 85.6599 27.7563 85.6599 26.642C85.6599 25.6743 84.9772 25.0951 83.3621 24.6986L81.7469 24.3091C79.4571 23.756 78.3951 22.6859 78.3951 20.9483C78.3951 18.798 80.2692 17.3204 82.9304 17.3204C85.5645 17.3204 87.3704 18.798 87.4316 20.9483H85.5484C85.435 19.7045 84.4071 18.9536 82.9043 18.9536C81.4016 18.9536 80.3736 19.7135 80.3736 20.8188C80.3736 21.7001 81.0301 22.2191 82.6363 22.6156L84.0105 22.9529C86.5673 23.5582 87.6304 24.5852 87.6304 26.4092C87.6304 28.7411 85.7723 30.2017 82.818 30.2017C80.0534 30.2017 78.1873 28.7752 78.0668 26.5206H79.9761Z" fill="white"/>
<path fill-rule="evenodd" clip-rule="evenodd" d="M91.6564 18.7546V20.9058H93.3851V22.3825H91.6564V27.3926C91.6564 28.1716 92.0028 28.534 92.7627 28.534C92.9524 28.534 93.2556 28.5079 93.376 28.4908V29.9594C93.1692 30.0117 92.7546 30.0458 92.3401 30.0458C90.5 30.0458 89.7823 29.3551 89.7823 27.5924V22.3825H88.4602V20.9058H89.7823V18.7546H91.6564Z" fill="white"/>
<path fill-rule="evenodd" clip-rule="evenodd" d="M101.107 25.4501C101.107 23.4886 100.207 22.3311 98.6965 22.3311C97.1847 22.3311 96.2862 23.4976 96.2862 25.4501C96.2862 27.4196 97.1847 28.568 98.6965 28.568C100.207 28.568 101.107 27.4196 101.107 25.4501ZM94.386 25.4501C94.386 22.5901 96.0694 20.7933 98.6965 20.7933C101.332 20.7933 103.008 22.5901 103.008 25.4501C103.008 28.317 101.34 30.1069 98.6965 30.1069C96.0533 30.1069 94.386 28.317 94.386 25.4501Z" fill="white"/>
<path fill-rule="evenodd" clip-rule="evenodd" d="M104.546 20.9054H106.325V22.4523H106.368C106.654 21.4244 107.483 20.81 108.554 20.81C108.822 20.81 109.046 20.8452 109.193 20.8803V22.625C109.046 22.5638 108.718 22.5126 108.355 22.5126C107.155 22.5126 106.411 23.3247 106.411 24.6036V29.9942H104.546V20.9054Z" fill="white"/>
<path fill-rule="evenodd" clip-rule="evenodd" d="M111.488 24.612H116.032C115.988 23.2207 115.099 22.3052 113.803 22.3052C112.515 22.3052 111.584 23.2387 111.488 24.612ZM117.794 27.3244C117.543 28.9747 115.937 30.107 113.881 30.107C111.237 30.107 109.596 28.3352 109.596 25.4934C109.596 22.6425 111.246 20.7934 113.803 20.7934C116.318 20.7934 117.899 22.521 117.899 25.2765V25.916H111.479V26.0284C111.479 27.5834 112.456 28.6033 113.925 28.6033C114.961 28.6033 115.774 28.1104 116.024 27.3244H117.794Z" fill="white"/>
<path fill-rule="evenodd" clip-rule="evenodd" d="M44.8695 10.6772H45.6706C46.3351 10.6772 46.7999 10.2868 46.7999 9.72259C46.7999 9.17048 46.3843 8.81311 45.6796 8.81311C44.981 8.81311 44.5242 9.16646 44.471 9.7517H43.5917C43.6529 8.67157 44.459 8 45.7078 8C46.8873 8 47.7174 8.65952 47.7174 9.61016C47.7174 10.2707 47.2768 10.8308 46.6293 10.9804V11.0507C47.4052 11.13 47.9614 11.665 47.9614 12.4992C47.9614 13.5241 46.9907 14.28 45.7248 14.28C44.4218 14.28 43.5284 13.5743 43.4742 12.5072H44.3676C44.4218 13.0804 44.9478 13.4499 45.7248 13.4499C46.5008 13.4499 47.0077 13.0353 47.0077 12.45C47.0077 11.8558 46.5299 11.4904 45.6957 11.4904H44.8695V10.6772Z" fill="white"/>
<path fill-rule="evenodd" clip-rule="evenodd" d="M51.8817 12.4703V12.0929L50.7775 12.1631C50.1551 12.2043 49.873 12.4161 49.873 12.8146C49.873 13.2222 50.2264 13.4581 50.7112 13.4581C51.3838 13.4581 51.8817 13.0305 51.8817 12.4703ZM48.9756 12.8568C48.9756 12.0427 49.5829 11.5739 50.657 11.5076L51.8817 11.4364V11.0469C51.8817 10.569 51.5675 10.299 50.9562 10.299C50.4583 10.299 50.114 10.4827 50.0146 10.8019H49.1503C49.2416 10.025 49.9734 9.52705 50.9983 9.52705C52.1317 9.52705 52.7711 10.0912 52.7711 11.0469V14.1347H51.9108V13.4993H51.8406C51.5705 13.952 51.0766 14.209 50.4824 14.209C49.611 14.209 48.9756 13.683 48.9756 12.8568Z" fill="white"/>
<path fill-rule="evenodd" clip-rule="evenodd" d="M55.1383 10.3655V14.135H54.2459V9.61467H57.2223V10.3655H55.1383Z" fill="white"/>
<path fill-rule="evenodd" clip-rule="evenodd" d="M61.7113 11.8727C61.7113 10.9181 61.2596 10.3409 60.5037 10.3409C59.7528 10.3409 59.283 10.9301 59.283 11.8767C59.283 12.8183 59.7528 13.4086 60.4997 13.4086C61.2596 13.4086 61.7113 12.8314 61.7113 11.8727ZM62.6288 11.8727C62.6288 13.3092 61.9021 14.2097 60.7617 14.2097C60.1172 14.2097 59.6063 13.9276 59.3704 13.4498H59.3001V15.6371H58.4077V9.61408H59.266V10.3619H59.3332C59.6063 9.84697 60.1383 9.5398 60.7527 9.5398C61.9021 9.5398 62.6288 10.4362 62.6288 11.8727Z" fill="white"/>
<path fill-rule="evenodd" clip-rule="evenodd" d="M63.8171 15.7538V14.9858C63.8874 14.9989 64.0249 15.0019 64.1082 15.0019C64.5318 15.0019 64.7717 14.8282 64.9253 14.3715L64.9926 14.1516L63.3563 9.61427H64.328L65.4614 13.205H65.5316L66.661 9.61427H67.6066L65.9221 14.3213C65.5357 15.4215 65.108 15.7748 64.1865 15.7748C64.1122 15.7748 63.9004 15.7658 63.8171 15.7538Z" fill="white"/>
<path fill-rule="evenodd" clip-rule="evenodd" d="M68.302 12.8521H69.1904C69.2777 13.2506 69.6512 13.4584 70.1732 13.4584C70.7674 13.4584 71.1318 13.1964 71.1318 12.7898C71.1318 12.3542 70.8046 12.1464 70.1732 12.1464H69.4966V11.4527H70.1621C70.7012 11.4527 70.9752 11.2459 70.9752 10.8675C70.9752 10.5362 70.7092 10.2822 70.1621 10.2822C69.6622 10.2822 69.2978 10.4941 69.2406 10.8514H68.3803C68.4717 10.0463 69.1402 9.52736 70.1621 9.52736C71.2362 9.52736 71.8506 10.0132 71.8506 10.7771C71.8506 11.2289 71.5645 11.5983 71.1369 11.7017V11.773C71.7221 11.9105 72.0212 12.2879 72.0212 12.7898C72.0212 13.6491 71.2904 14.2173 70.1732 14.2173C69.1864 14.2173 68.3843 13.7656 68.302 12.8521Z" fill="white"/>
<path fill-rule="evenodd" clip-rule="evenodd" d="M73.306 14.1349V9.61458H74.1904V12.7235H74.2607L76.3436 9.61458H77.228V14.1349H76.3436V11.0089H76.2774L74.1904 14.1349H73.306Z" fill="white"/>
<path fill-rule="evenodd" clip-rule="evenodd" d="M82.0994 10.3655H80.6759V14.135H79.7825V10.3655H78.3591V9.61467H82.0994V10.3655Z" fill="white"/>
<path fill-rule="evenodd" clip-rule="evenodd" d="M83.7669 11.4576H86.0487C86.0286 10.7479 85.5969 10.2861 84.9374 10.2861C84.2769 10.2861 83.8161 10.7519 83.7669 11.4576ZM86.905 12.9142C86.7012 13.7243 85.9784 14.2222 84.9455 14.2222C83.6505 14.2222 82.8575 13.3338 82.8575 11.8893C82.8575 10.4447 83.6666 9.52724 84.9414 9.52724C86.1992 9.52724 86.9592 10.3865 86.9592 11.806V12.1171H83.7669V12.1673C83.7951 12.9604 84.2558 13.4623 84.9706 13.4623C85.5096 13.4623 85.879 13.2676 86.0457 12.9142H86.905Z" fill="white"/>
<path fill-rule="evenodd" clip-rule="evenodd" d="M91.5713 12.1257V13.4498H92.6293C93.1563 13.4498 93.4384 13.2169 93.4384 12.7902C93.4384 12.3375 93.1192 12.1257 92.5169 12.1257H91.5713ZM91.5713 10.2997V11.4702H92.4556C92.9947 11.4702 93.2527 11.2624 93.2527 10.8799C93.2527 10.5276 93.0278 10.2997 92.554 10.2997H91.5713ZM90.6869 9.6151H92.7247C93.6091 9.6151 94.128 10.0628 94.128 10.7645C94.128 11.2212 93.8048 11.6358 93.3641 11.7192V11.7894C93.9494 11.8557 94.3308 12.2833 94.3308 12.8314C94.3308 13.6204 93.7375 14.1344 92.7458 14.1344H90.6869V9.6151Z" fill="white"/>
<rect x="0.5" y="0.5" width="135" height="39" rx="3.5" stroke="white"/>
</svg>
