<svg width="40" height="40" viewBox="0 0 40 40" fill="none" xmlns="http://www.w3.org/2000/svg">
<rect width="40" height="40" rx="4" fill="#F5F5F5"/>
<path d="M11.8926 21.2881H9.30176V19.9277H11.8926C12.3438 19.9277 12.7083 19.8548 12.9863 19.709C13.2643 19.5632 13.4671 19.3626 13.5947 19.1074C13.7269 18.8477 13.793 18.5514 13.793 18.2188C13.793 17.9043 13.7269 17.6104 13.5947 17.3369C13.4671 17.0589 13.2643 16.8356 12.9863 16.667C12.7083 16.4984 12.3438 16.4141 11.8926 16.4141H9.82812V25H8.1123V15.0469H11.8926C12.6628 15.0469 13.3167 15.1836 13.8545 15.457C14.3968 15.7259 14.8092 16.0996 15.0918 16.5781C15.3743 17.0521 15.5156 17.5944 15.5156 18.2051C15.5156 18.8477 15.3743 19.3991 15.0918 19.8594C14.8092 20.3197 14.3968 20.6729 13.8545 20.9189C13.3167 21.165 12.6628 21.2881 11.8926 21.2881ZM19.9453 25H17.8193L17.833 23.6396H19.9453C20.5605 23.6396 21.0755 23.5052 21.4902 23.2363C21.9095 22.9674 22.224 22.5824 22.4336 22.0811C22.6478 21.5798 22.7549 20.9827 22.7549 20.29V19.75C22.7549 19.2122 22.6934 18.736 22.5703 18.3213C22.4518 17.9066 22.2741 17.5579 22.0371 17.2754C21.8047 16.9928 21.5176 16.7786 21.1758 16.6328C20.8385 16.487 20.4489 16.4141 20.0068 16.4141H17.7783V15.0469H20.0068C20.6676 15.0469 21.2715 15.1585 21.8184 15.3818C22.3652 15.6006 22.8369 15.9173 23.2334 16.332C23.6344 16.7467 23.9421 17.2435 24.1562 17.8223C24.3704 18.401 24.4775 19.0482 24.4775 19.7637V20.29C24.4775 21.0055 24.3704 21.6527 24.1562 22.2314C23.9421 22.8102 23.6344 23.307 23.2334 23.7217C22.8324 24.1318 22.3538 24.4486 21.7979 24.6719C21.2464 24.8906 20.6289 25 19.9453 25ZM18.7695 15.0469V25H17.0537V15.0469H18.7695ZM27.916 15.0469V25H26.2002V15.0469H27.916ZM31.9766 19.4014V20.7617H27.4785V19.4014H31.9766ZM32.5439 15.0469V16.4141H27.4785V15.0469H32.5439Z" fill="#2C2C2C"/>
</svg>
